<svg width="667" height="500" xmlns="http://www.w3.org/2000/svg" xmlns:xlink="http://www.w3.org/1999/xlink">
 <title>Ruboto-LogoV2</title>
 <metadata id="metadata2553">image/svg+xmlRuboto-LogoV2Michael "RedNifre" Zinn23.2.2010Creative Commons: CC BY-SAMichael ZinnRuby Ruboto Android OrbNew Ruboto logo, features Gemini and the Orb font.MichaelGZinn@gmail.com</metadata>
 <g>
  <title>Layer 1</title>
  <rect id="rect3980" width="667" height="500" fill="#30587c"/>
  <g id="layer1"/>
  <g id="layer2"/>
  <g id="g4028">
   <g id="g4012">
    <path d="m258.42499,63.4579l23.64102,35.8671" id="path2500" stroke-linecap="round" stroke-width="30" stroke="#ffffff"/>
    <path d="m406.38599,62.6458l-23.91098,35.5962" id="path2498" stroke-linecap="round" stroke-width="30" stroke="#ffffff"/>
    <path d="m188.966,141.142l54.10899,-59.015l175.42299,0.541l59.53601,58.06799" id="path2880" stroke-miterlimit="4" stroke-linejoin="round" stroke-linecap="round" stroke-width="12" stroke="#ffffff" fill="#c81010"/>
    <path d="m406.38599,62.6458l-24,36.00021" id="path2522" stroke-linecap="round" stroke-width="6" stroke="#c81010" fill="#c83737"/>
    <path d="m259.237,63.1872l24,35.99979" id="path2524" stroke-linecap="round" stroke-width="6" stroke="#c81010" fill="#c83737"/>
    <g id="g4008">
     <circle id="circle2516" r="9" cy="112.37507" cx="289.64926" fill="#ffffff"/>
     <circle id="circle2518" r="9" cy="112.37507" cx="377.35072" fill="#ffffff"/>
    </g>
   </g>
   <g id="g4000">
    <g id="g2993">
     <path id="path2502" d="m294.62701,284.95001l0,38" stroke-linecap="round" stroke-width="60" stroke="#ffffff"/>
     <path id="path2526" d="m294.62701,284.95001l0,38" stroke-linecap="round" stroke-width="36" stroke="#c81010" fill="#c83737"/>
    </g>
    <g id="g2997">
     <path id="path2504" d="m372.37299,284.95001l0,38" stroke-linecap="round" stroke-width="60" stroke="#ffffff"/>
     <path id="path2528" d="m372.37299,284.95001l0,38" stroke-linecap="round" stroke-width="36" stroke="#c81010" fill="#c83737"/>
    </g>
   </g>
   <path id="rect2990" d="m188.689,141.142l289.62201,0.54201l-144.94601,146.84099l-144.67599,-147.383l0,0l0,0l0,0z" stroke-miterlimit="4" stroke-linejoin="round" stroke-linecap="round" stroke-width="12" stroke="#ffffff" fill="#c81010"/>
   <g id="g4022">
    <g id="g2965">
     <path id="path2506" d="m195.70599,184.03799l0,59.133" stroke-linecap="round" stroke-width="60" stroke="#ffffff"/>
     <path id="path2530" d="m195.70599,184.03799l-0.541,58.591" stroke-linecap="round" stroke-width="36" stroke="#c81010" fill="#c81010"/>
    </g>
    <use y="0" x="275.58755" xlink:href="#g2965" id="use3157" width="500" height="500"/>
   </g>
  </g>
  <g id="g4114" stroke="#ffffff">
   <path d="m260.414,409.83401l0,24c0,13.25497 -10.745,24 -24,24c-13.255,0 -24,-10.74503 -24,-24l0,-24" id="path2538" stroke-linecap="square" stroke-width="12" stroke="#ffffff" fill="none"/>
   <circle r="24" cx="376.34313" cy="432.48071" id="circle2544" stroke-linecap="square" stroke-width="12" stroke="#ffffff" fill="none"/>
   <circle r="24" cx="502.34064" cy="433.15662" id="circle3405" stroke-linecap="square" stroke-width="12" stroke="#ffffff" fill="none"/>
   <g id="g3415" stroke-linecap="square" stroke-width="12" stroke="#ffffff" fill="none">
    <path id="path2546" d="m440.04501,457.564l0,-48" stroke="#ffffff"/>
    <path id="path3407" d="m416.20499,409.327l48,0" stroke="#ffffff"/>
   </g>
   <path d="m189.243,454.68201l0,8.423m-14.87399,-23.16101c8.08699,-0.11499 14.735,6.34799 14.84999,14.435c0.00301,0.224 0.00101,0.44901 -0.006,0.673m-14.981,-45.47699c8.386,-0.11902 15.28,6.58298 15.399,14.96799c0.119,8.38599 -6.582,15.28101 -14.968,15.39999c-0.194,0.00302 -0.388,0.00201 -0.582,-0.00299m1.50101,-0.022l-7.42799,0m-27.49501,23.68701l0.136,-54.00702l34.51601,0" id="path4102" stroke-miterlimit="4" stroke-width="12" stroke="#ffffff" fill="none"/>
   <path d="m282.66501,426.72101l0,30.55298l34.952,0" id="path4143" stroke-miterlimit="4" stroke-width="12" stroke="#ffffff" fill="none"/>
   <path d="m316.97299,408.43799c6.90701,0 12.52701,5.311 12.62302,12.07602c0.09598,6.76599 -5.311,12.14999 -12.077,12.246c-0.15601,0.00198 0.15799,0.00299 0.00098,0" id="path4141" stroke-miterlimit="4" stroke-linecap="round" stroke-width="12" stroke="#ffffff" fill="none"/>
   <path d="m317.521,432.76001c6.772,-0.09601 12.33899,5.315 12.435,12.08698c0.09601,6.772 -5.31598,12.34003 -12.08701,12.436c-0.15698,0.00201 -0.314,0.00101 -0.47,-0.00198" id="path4139" stroke-miterlimit="4" stroke-width="12" stroke="#ffffff" fill="none"/>
   <path d="m276.76401,408.453l40.40799,-0.01501" id="path4137" stroke-miterlimit="4" stroke-width="12" stroke="#ffffff" fill="none"/>
   <path d="m317.521,432.76001l-8.83701,0.09998" id="path4106" stroke-miterlimit="4" stroke-width="12" stroke="#ffffff" fill="none"/>
  </g>
 </g>
</svg>
