<?xml version="1.0" encoding="UTF-8" standalone="no"?>
<svg
   xmlns:dc="http://purl.org/dc/elements/1.1/"
   xmlns:cc="http://creativecommons.org/ns#"
   xmlns:rdf="http://www.w3.org/1999/02/22-rdf-syntax-ns#"
   xmlns:svg="http://www.w3.org/2000/svg"
   xmlns="http://www.w3.org/2000/svg"
   xmlns:xlink="http://www.w3.org/1999/xlink"
   xmlns:sodipodi="http://sodipodi.sourceforge.net/DTD/sodipodi-0.dtd"
   xmlns:inkscape="http://www.inkscape.org/namespaces/inkscape"
   width="889px"
   height="500px"
   version="1.1"
   id="svg2490"
   sodipodi:version="0.32"
   inkscape:version="0.47 r22583"
   sodipodi:docname="MichaelZinn_RubotoLogoV2.svg"
   inkscape:output_extension="org.inkscape.output.svg.inkscape"
   inkscape:export-filename="/home/michael/Bilder/Ruboto/RubotoLogoV2mini.png"
   inkscape:export-xdpi="5.0399799"
   inkscape:export-ydpi="5.0399799">
  <title
     id="title3680">Ruboto-LogoV2</title>
  <metadata
     id="metadata2553">
    <rdf:RDF>
      <cc:Work
         rdf:about="">
        <dc:format>image/svg+xml</dc:format>
        <dc:type
           rdf:resource="http://purl.org/dc/dcmitype/StillImage" />
        <dc:title>Ruboto-LogoV2</dc:title>
        <dc:creator>
          <cc:Agent>
            <dc:title>Michael &quot;RedNifre&quot; Zinn</dc:title>
          </cc:Agent>
        </dc:creator>
        <dc:date>23.2.2010</dc:date>
        <dc:rights>
          <cc:Agent>
            <dc:title>Creative Commons: CC BY-SA</dc:title>
          </cc:Agent>
        </dc:rights>
        <dc:publisher>
          <cc:Agent>
            <dc:title>Michael Zinn</dc:title>
          </cc:Agent>
        </dc:publisher>
        <dc:subject>
          <rdf:Bag>
            <rdf:li>Ruby Ruboto Android Orb</rdf:li>
          </rdf:Bag>
        </dc:subject>
        <dc:description>New Ruboto logo, features Gemini and the Orb font.</dc:description>
        <dc:contributor>
          <cc:Agent>
            <dc:title>MichaelGZinn@gmail.com</dc:title>
          </cc:Agent>
        </dc:contributor>
      </cc:Work>
    </rdf:RDF>
  </metadata>
  <defs
     id="defs2551">
    <inkscape:perspective
       sodipodi:type="inkscape:persp3d"
       inkscape:vp_x="0 : 250 : 1"
       inkscape:vp_y="0 : 1000 : 0"
       inkscape:vp_z="500 : 250 : 1"
       inkscape:persp3d-origin="250 : 166.66889 : 1"
       id="perspective2555" />
    <inkscape:perspective
       id="perspective3141"
       inkscape:persp3d-origin="0.5 : 0.33333333 : 1"
       inkscape:vp_z="1 : 0.5 : 1"
       inkscape:vp_y="0 : 1000 : 0"
       inkscape:vp_x="0 : 0.5 : 1"
       sodipodi:type="inkscape:persp3d" />
    <inkscape:perspective
       id="perspective4088"
       inkscape:persp3d-origin="0.5 : 0.33333333 : 1"
       inkscape:vp_z="1 : 0.5 : 1"
       inkscape:vp_y="0 : 1000 : 0"
       inkscape:vp_x="0 : 0.5 : 1"
       sodipodi:type="inkscape:persp3d" />
  </defs>
  <sodipodi:namedview
     inkscape:window-height="856"
     inkscape:window-width="1276"
     inkscape:pageshadow="2"
     inkscape:pageopacity="0.0"
     guidetolerance="10.0"
     gridtolerance="10.0"
     objecttolerance="10.0"
     borderopacity="1.0"
     bordercolor="#666666"
     pagecolor="#ffffff"
     id="base"
     showgrid="false"
     inkscape:zoom="1"
     inkscape:cx="-17.75074"
     inkscape:cy="265.63702"
     inkscape:window-x="0"
     inkscape:window-y="48"
     inkscape:current-layer="svg2490"
     inkscape:window-maximized="0"
     showguides="true"
     inkscape:guide-bbox="true" />
  <rect
     style="fill:#30587c;fill-opacity:1;stroke:none"
     id="rect3980"
     width="889"
     height="500"
     x="-6.9251799e-10"
     y="1.4253654e-14"
     inkscape:export-xdpi="90"
     inkscape:export-ydpi="90" />
  <g
     inkscape:groupmode="layer"
     id="layer1"
     inkscape:label="pixelart" />
  <g
     inkscape:groupmode="layer"
     id="layer2"
     inkscape:label="vectorart" />
  <g
     id="g4028"
     transform="translate(192, -34)">
    <g
       transform="translate(-1.80028,0)"
       id="g4012">
      <path
         sodipodi:nodetypes="cc"
         d="m 178.32068,97.457932 23.64073,35.867178"
         id="path2500"
         style="stroke:#ffffff;stroke-width:30;stroke-linecap:round" />
      <path
         sodipodi:nodetypes="cc"
         d="M 326.28146,96.645792 302.37001,132.24225"
         id="path2498"
         style="stroke:#ffffff;stroke-width:30;stroke-linecap:round" />
      <path
         style="fill:#c81010;fill-opacity:1;stroke:#ffffff;stroke-width:12;stroke-linecap:round;stroke-linejoin:round;stroke-miterlimit:4;stroke-opacity:1;stroke-dasharray:none"
         d="m 108.86115,175.14236 54.10909,-59.0158 175.42313,0.54143 59.53639,58.0676"
         id="path2880"
         sodipodi:nodetypes="cccc" />
      <path
         d="m 326.28146,96.645792 -24,36.000008"
         id="path2522"
         style="fill:#c83737;stroke:#c81010;stroke-width:6;stroke-linecap:round;stroke-opacity:1" />
      <path
         d="m 179.13282,97.187222 24,36.000008"
         id="path2524"
         style="fill:#c83737;stroke:#c81010;stroke-width:6;stroke-linecap:round;stroke-opacity:1" />
      <g
         transform="translate(2.0418816,0)"
         id="g4008">
        <circle
           transform="translate(-6.497153,47.375071)"
           sodipodi:ry="9"
           sodipodi:rx="9"
           sodipodi:cy="99"
           sodipodi:cx="214"
           id="circle2516"
           r="9"
           cy="99"
           cx="214"
           style="fill:#ffffff;stroke:none"
           d="m 223,99 c 0,4.97056 -4.02944,9 -9,9 -4.97056,0 -9,-4.02944 -9,-9 0,-4.970563 4.02944,-9 9,-9 4.97056,0 9,4.029437 9,9 z" />
        <circle
           transform="translate(9.2042997,47.375071)"
           sodipodi:ry="9"
           sodipodi:rx="9"
           sodipodi:cy="99"
           sodipodi:cx="286"
           id="circle2518"
           r="9"
           cy="99"
           cx="286"
           style="fill:#ffffff;stroke:none"
           d="m 295,99 c 0,4.97056 -4.02944,9 -9,9 -4.97056,0 -9,-4.02944 -9,-9 0,-4.970563 4.02944,-9 9,-9 4.97056,0 9,4.029437 9,9 z" />
      </g>
    </g>
    <g
       transform="translate(-0.0291135,0)"
       id="g4000">
      <g
         id="g2993"
         transform="translate(-3.2485758,18.950028)">
        <path
           style="stroke:#ffffff;stroke-width:60;stroke-linecap:round"
           id="path2502"
           d="m 216,300 v 38" />
        <path
           style="fill:#c83737;stroke:#c81010;stroke-width:36;stroke-linecap:round;stroke-opacity:1"
           id="path2526"
           d="m 216,300 v 38" />
      </g>
      <g
         id="g2997"
         transform="translate(6.4971528,18.950028)">
        <path
           style="stroke:#ffffff;stroke-width:60;stroke-linecap:round"
           id="path2504"
           d="m 284,300 v 38" />
        <path
           style="fill:#c83737;stroke:#c81010;stroke-width:36;stroke-linecap:round;stroke-opacity:1"
           id="path2528"
           d="m 284,300 v 38" />
      </g>
    </g>
    <path
       sodipodi:nodetypes="cccc"
       id="rect2990"
       d="M 106.78423,175.14235 396.40612,175.68378 251.45982,322.52509 106.78423,175.14235 z"
       style="fill:#c81010;fill-opacity:1;stroke:#ffffff;stroke-width:12;stroke-linecap:round;stroke-linejoin:round;stroke-miterlimit:4;stroke-opacity:1" />
    <g
       id="g4022">
      <g
         id="g2965"
         transform="translate(-22.198605,45.750783)">
        <path
           style="stroke:#ffffff;stroke-width:60;stroke-linecap:round"
           id="path2506"
           d="m 136,172.28716 0,59.13283"
           sodipodi:nodetypes="cc" />
        <path
           style="fill:#c81010;stroke:#c81010;stroke-width:36;stroke-linecap:round;stroke-opacity:1;fill-opacity:1"
           id="path2530"
           d="m 136,172.28716 -0.54143,58.5914"
           sodipodi:nodetypes="cc" />
      </g>
      <use
         x="0"
         y="0"
         xlink:href="#g2965"
         id="use3157"
         transform="translate(275.58756,-5.0000064e-8)"
         width="500"
         height="500" />
    </g>
  </g>
  <g
     id="g4114"
     style="stroke:#ffffff;stroke-opacity:1"
	 transform="translate(192, -20)">
    <path
       d="m 180.53004,419.83428 0,24 c 0,13.25483 -10.74517,24 -24,24 -13.25483,0 -24,-10.74517 -24,-24 l 0,-24"
       id="path2538"
       style="fill:none;stroke:#ffffff;stroke-width:12;stroke-linecap:square;stroke-opacity:1" />
    <circle
       r="24"
       cx="318"
       cy="30"
       id="circle2544"
       sodipodi:cx="318"
       sodipodi:cy="30"
       sodipodi:rx="24"
       sodipodi:ry="24"
       transform="translate(-21.540789,412.48071)"
       d="m 342,30 c 0,13.254834 -10.74517,24 -24,24 -13.25483,0 -24,-10.745166 -24,-24 0,-13.254834 10.74517,-24 24,-24 13.25483,0 24,10.745166 24,24 z"
       style="fill:none;stroke:#ffffff;stroke-width:12;stroke-linecap:square;stroke-opacity:1" />
    <circle
       r="24"
       cx="318"
       cy="30"
       id="circle3405"
       sodipodi:cx="318"
       sodipodi:cy="30"
       sodipodi:rx="24"
       sodipodi:ry="24"
       transform="translate(104.45672,413.15661)"
       d="m 342,30 c 0,13.254834 -10.74517,24 -24,24 -13.25483,0 -24,-10.745166 -24,-24 0,-13.254834 10.74517,-24 24,-24 13.25483,0 24,10.745166 24,24 z"
       style="fill:none;stroke:#ffffff;stroke-width:12;stroke-linecap:square;stroke-opacity:1" />
    <g
       id="g3415"
       transform="translate(49.115746,413.83428)"
       style="fill:none;stroke:#ffffff;stroke-width:12;stroke-linecap:square;stroke-opacity:1">
      <path
         id="path2546"
         d="m 311.04491,53.729285 0,-48"
         style="stroke:#ffffff;stroke-opacity:1" />
      <path
         id="path3407"
         d="m 287.20551,5.4927383 48,0"
         style="stroke:#ffffff;stroke-opacity:1" />
    </g>
    <path
       d="m 109.35928,464.68224 0,8.42266 M 94.484795,449.94406 c 8.086825,-0.11471 14.735475,6.34796 14.850175,14.43478 0.003,0.22448 0.001,0.44901 -0.006,0.6734 m -14.98079,-45.4774 c 8.38581,-0.11894 15.28028,6.58267 15.39923,14.96848 0.11894,8.38581 -6.58267,15.28028 -14.968484,15.39923 -0.194022,0.003 -0.388078,0.002 -0.582062,-0.003 m 1.50078,-0.0218 -7.427945,0 m -27.49425,23.68754 0.135357,-54.00759 34.516124,0"
       style="fill:none;stroke:#ffffff;stroke-width:12;stroke-linecap:butt;stroke-linejoin:miter;stroke-miterlimit:4;stroke-opacity:1;stroke-dasharray:none"
       id="path4102"
       sodipodi:nodetypes="cccsccsscccccc" />
    <path
       style="fill:none;stroke:#ffffff;stroke-width:12;stroke-linecap:butt;stroke-linejoin:miter;stroke-opacity:1;stroke-miterlimit:4;stroke-dasharray:none"
       d="m 202.7814,436.72079 0,30.55276 34.95172,0"
       id="path4143" />
    <path
       style="fill:none;stroke:#ffffff;stroke-width:12;stroke-linecap:round;stroke-linejoin:miter;stroke-opacity:1;stroke-miterlimit:4;stroke-dasharray:none"
       d="m 237.08909,418.43809 c 6.90683,0 12.52658,5.31072 12.62254,12.07616 0.096,6.76544 -5.31072,12.14939 -12.07616,12.24535 -0.15653,0.002 0.15783,0.003 0.001,0"
       id="path4141"
       sodipodi:nodetypes="cssc" />
    <path
       style="fill:none;stroke:#ffffff;stroke-width:12;stroke-linecap:butt;stroke-linejoin:miter;stroke-opacity:1;stroke-miterlimit:4;stroke-dasharray:none"
       d="m 237.6368,442.7596 c 6.77186,-0.0961 12.3394,5.31575 12.43545,12.0876 0.0961,6.77186 -5.31575,12.3394 -12.0876,12.43545 -0.15668,0.002 -0.31339,0.001 -0.47004,-0.002"
       id="path4139" />
    <path
       style="fill:none;stroke:#ffffff;stroke-width:12;stroke-linecap:butt;stroke-linejoin:miter;stroke-opacity:1;stroke-miterlimit:4;stroke-dasharray:none"
       d="m 196.87979,418.45329 40.40817,-0.0152"
       id="path4137" />
    <path
       style="fill:none;stroke:#ffffff;stroke-width:12;stroke-linecap:butt;stroke-linejoin:miter;stroke-opacity:1;stroke-miterlimit:4;stroke-dasharray:none"
       d="m 237.6368,442.7596 -8.83684,0.10028"
       id="path4106"
       sodipodi:nodetypes="cc" />
  </g>
</svg>